<svg xmlns="http://www.w3.org/2000/svg" width="300" height="24" viewBox="0 0 300 24">
  <style>
    .text { font-family: -apple-system,BlinkMacSystemFont,"Segoe UI",Helvetica,Arial,sans-serif; font-size: 14px; fill: #347d9e; font-weight: 600; }
    .icon { fill: #58a6ff; }
  </style>
  <g transform="translate(0, 2)">
    <path class="icon" fill-rule="evenodd" d="M2 2.5A2.5 2.5 0 014.5 0h8.75a.75.75 0 01.75.75v12.5a.75.75 0 01-.75.75h-2.5a.75.75 0 110-1.5h1.75v-2h-8a1 1 0 00-.714 1.7a.75.75 0 01-1.072 1.05A2.495 2.495 0 012 11.5v-9zm10.5-1V9h-8c-.356 0-.694.074-1 .208V2.5a1 1 0 011-1h8zM5 12.25a.25.25 0 01.25-.25h3.5a.25.25 0 01.25.25v3.25a.25.25 0 01-.4.2l-1.45-1.087a.25.25 0 00-.3 0L5.4 15.7a.25.25 0 01-.4-.2v-3.25z"></path>
    <text x="24" y="15" class="text">Contributed repos:</text>
    <text x="290" y="15" text-anchor="end" class="text">69</text>
  </g>
</svg>
