<svg xmlns="http://www.w3.org/2000/svg" width="200" height="30" viewBox="0 0 200 30"> <style> text { fill: #347d9e; font-family: -apple-system, BlinkMacSystemFont, "Segoe UI", Helvetica, Arial, sans-serif; font-size: 16px; } .icon { fill: #347d9e; } </style> <rect width="100%" height="100%" fill="#0d1117"/> <path class="icon" d="M2 2.5A2.5 2.5 0 014.5 0h8.75a.75.75 0 01.75.75v12.5a.75.75 0 01-.75.75h-2.5a.75.75 0 110-1.5h1.75v-2h-8a1 1 0 00-.714 1.7a.75.75 0 01-1.072 1.05A2.495 2.495 0 012 11.5v-9zm10.5-1V9h-8c-.356 0-.694.074-1 .208V2.5a1 1 0 011-1h8zM5 12.25a.25.25 0 01.25-.25h3.5a.25.25 0 01.25.25v3.25a.25.25 0 01-.4.2l-1.45-1.087a.25.25 0 00-.3 0L5.4 15.7a.25.25 0 01-.4-.2v-3.25z" transform="translate(2, 8)"/> <text x="30" y="20">Contributed repos:</text> <text x="190" y="20" text-anchor="end">69</text> </svg>
